<svg width="25" height="16" xmlns="http://www.w3.org/2000/svg"><path d="M21.635 16c-4.091 0-3.816-4.706-9.135-4.706C7.18 11.294 7.456 16 3.365 16a3.403 3.403 0 0 1-2.38-.965A3.26 3.26 0 0 1 0 12.705C0 1.829 3.67 0 12.5 0S25 1.828 25 12.706a3.26 3.26 0 0 1-.986 2.33 3.403 3.403 0 0 1-2.38.964zM10.096 6.118a.466.466 0 0 0-.14-.333.486.486 0 0 0-.34-.138H7.691V3.765a.466.466 0 0 0-.14-.333.486.486 0 0 0-.34-.138H6.25c-.128 0-.25.05-.34.138a.466.466 0 0 0-.14.333v1.882H3.845c-.127 0-.25.05-.34.138a.466.466 0 0 0-.14.333v.94c0 .126.05.245.14.334.09.088.213.137.34.137H5.77v1.883c0 .125.05.244.141.333.09.088.212.137.34.137h.962c.127 0 .25-.05.34-.137a.466.466 0 0 0 .14-.333V7.529h1.923c.128 0 .25-.05.34-.137a.466.466 0 0 0 .141-.333v-.941zm6.25 0c-.285 0-.564.082-.801.238a1.42 1.42 0 0 0-.531.633 1.384 1.384 0 0 0 .312 1.539 1.471 1.471 0 0 0 1.572.306c.264-.107.489-.288.647-.52a1.39 1.39 0 0 0-.179-1.783 1.458 1.458 0 0 0-1.02-.413zm3.846-1.883c-.285 0-.564.083-.801.238a1.419 1.419 0 0 0-.531.634 1.384 1.384 0 0 0 .312 1.538 1.472 1.472 0 0 0 1.572.306c.264-.106.49-.287.648-.52a1.39 1.39 0 0 0-.18-1.782 1.458 1.458 0 0 0-1.02-.414z"/></svg>