<svg width="24" height="24" fill="#849CCE" xmlns="http://www.w3.org/2000/svg"><path fill-rule="evenodd" clip-rule="evenodd" d="M4.69 19.284c3.22-.972 3.994-1.928 4.037-4.542a5.125 5.125 0 0 1-.858-.784 5.788 5.788 0 0 1-1.22-2.983.666.666 0 0 1-.151.018c-.591 0-1.039-1.331-1.039-2.267 0-.936.304-1.22.593-1.22a1.8 1.8 0 0 1 .23.014 8.546 8.546 0 0 1-.278-2.02c0-1.676.351-2.843 1.09-3C7.815.66 10.21 0 12.544 0c1.495 0 1.965.267 2.181 1a2.152 2.152 0 0 1 1.408.361c.403.278.679.684.772 1.139.563.192 1.09.864 1.09 3a8.544 8.544 0 0 1-.277 2.02c.076-.01.152-.014.229-.015.29 0 .594.285.594 1.221 0 .936-.448 2.267-1.039 2.267a.666.666 0 0 1-.152-.018 5.788 5.788 0 0 1-1.219 2.983c-.252.29-.54.554-.858.784.042 2.614.817 3.57 4.038 4.542 3.013.91 4.434 1.546 4.685 3.886a.697.697 0 0 1-.037.31.744.744 0 0 1-.171.27.825.825 0 0 1-.276.184.888.888 0 0 1-.334.066H.822a.888.888 0 0 1-.333-.065.825.825 0 0 1-.276-.184.743.743 0 0 1-.172-.27.697.697 0 0 1-.037-.311c.25-2.34 1.672-2.976 4.685-3.886z"/></svg>