<svg width="98" height="80" fill="none" xmlns="http://www.w3.org/2000/svg"><path d="M79.25 20.304L98 14.051V4.104L48.93 20.468v9.947l6.524-2.176 12.227-4.077v51.892l11.569-3.857V20.304z" fill="#40496C"/><path d="M48.905 52.463v25.4l12.268-4.041v-25.45l-12.268 4.09z" fill="#40496C"/><path d="M23.28 75.436c2.419 1.286 3.849 1.903 6.453 2.763 2.017.666 3.171 1.01 5.267 1.361 1.906.32 2.998.47 4.932.435 1.819-.033 4.625-.548 4.625-.548l4.348-1.585v-25.4l-18.368-6.166v6.6s.146 1.147.555 1.727c.433.614 1.55 1.15 1.55 1.15l6.964 2.338v11.375s-2.863.497-4.706.418c-2.179-.093-3.4-.427-5.472-1.1-1.653-.536-2.556-.937-4.085-1.755-1.514-.81-2.33-1.343-3.684-2.393-1.355-1.052-2.068-1.714-3.229-2.973-1.174-1.274-1.77-2.054-2.721-3.497-.98-1.486-1.453-2.376-2.191-3.992-.771-1.687-1.122-2.676-1.636-4.457-.538-1.865-.753-2.941-1.019-4.863-.28-2.02-.349-3.17-.34-5.21.009-1.836.032-2.877.316-4.692.249-1.586.409-2.487.947-4.002.473-1.329.768-2.084 1.53-3.274.685-1.067 1.12-1.661 2.067-2.508.9-.803 1.48-1.2 2.579-1.707 1.128-.522 1.833-.692 3.066-.87 1.355-.197 2.155-.213 3.506.004.62.1 1.563.368 1.563.368l2.335.55 20.498 6.882v-9.947l-12.226-4.105v.004s-4.784-1.772-7.927-2.66c-2.434-.689-3.783-1.216-6.295-1.528-2.188-.272-3.453-.382-5.644-.136-1.965.22-3.072.482-4.923 1.169-1.733.69-2.672 1.234-4.128 2.392-1.487 1.182-2.201 2.019-3.305 3.558-1.202 1.676-1.692 2.756-2.454 4.668-.85 2.138-1.122 3.424-1.52 5.687C.057 32.07.004 33.541 0 36.131c-.005 2.7.112 4.226.526 6.896.412 2.657.766 4.14 1.579 6.706.806 2.545 1.366 3.95 2.55 6.348 1.167 2.367 1.924 3.656 3.438 5.822 1.512 2.162 2.46 3.318 4.286 5.228 1.844 1.927 2.966 2.942 5.09 4.563 2.144 1.636 3.426 2.473 5.812 3.742zm37.893-27.064v25.45l6.508 2.232V24.162l-12.227 4.077v18.213l5.719 1.92z" fill="#252D4D"/><path d="M22.482 12.179c2.512.312 3.861.84 6.295 1.527 3.143.889 7.926 2.661 7.926 2.661v-.004l12.227 4.105L98 4.104 85.774 0 48.971 12.272l-7.927-2.657S37.261 8.4 34.75 8.088c-2.188-.272-3.454-.382-5.645-.136-1.964.22-3.012.665-4.922 1.17-4.885 1.29-7.59 2.192-12.268 4.09 1.851-.687 2.958-.95 4.923-1.17 2.19-.245 3.456-.135 5.644.137zm8.055 34.117l18.368 6.167 12.268-4.091-5.719-1.92-12.65-4.246-12.267 4.09z" fill="#576187"/><path d="M34.9 69.904c1.843.08 4.707-.417 4.707-.417v-5.67s-1.238-.481-1.997-.86c-1.537-.765-2.33-1.341-3.683-2.392-1.356-1.052-2.069-1.713-3.229-2.972-1.174-1.275-1.77-2.054-2.722-3.498-.98-1.486-1.452-2.376-2.19-3.992-.771-1.687-1.123-2.676-1.637-4.457-.538-1.865-.752-2.941-1.018-4.862-.28-2.02-.35-3.172-.34-5.21.008-1.837.031-2.878.316-4.692.248-1.587.409-2.488.947-4.003.473-1.328.682-2.142 1.53-3.274.19-.251.513-.622.513-.622s-.944-.268-1.563-.368c-1.351-.217-2.151-.201-3.506-.005-1.233.18-1.938.35-3.066.87-1.098.508-1.68.905-2.579 1.708-.948.847-1.382 1.441-2.066 2.508-.763 1.19-1.058 1.945-1.53 3.274-.54 1.515-.7 2.416-.948 4.002-.284 1.815-.307 2.856-.316 4.692-.009 2.04.06 3.19.34 5.21.266 1.922.48 2.998 1.019 4.863.514 1.781.865 2.77 1.636 4.457.738 1.616 1.211 2.506 2.19 3.992.952 1.443 1.548 2.223 2.722 3.497 1.16 1.26 1.874 1.92 3.23 2.973 1.353 1.05 2.169 1.582 3.683 2.392 1.53.82 2.432 1.22 4.085 1.757 2.071.672 3.293 1.005 5.472 1.099z" fill="#576187"/></svg>