<svg width="24" height="24" viewBox="0 0 24 24" xmlns="http://www.w3.org/2000/svg"><path d="M16.969 14.543l-.282.209.101.336 2.356 7.808.003.01c.03.093.031.194.003.288a.445.445 0 0 1-.153.225.384.384 0 0 1-.233.081.383.383 0 0 1-.23-.077l-6.238-4.897-.309-.243-.309.243-6.224 4.893a.382.382 0 0 1-.461-.006.446.446 0 0 1-.153-.226.483.483 0 0 1 .004-.287l.004-.012 2.338-7.79.1-.334-.28-.21-6.323-4.73a.455.455 0 0 1-.16-.226.494.494 0 0 1-.002-.292.457.457 0 0 1 .155-.23.395.395 0 0 1 .234-.084h8.154l.11-.352 2.43-7.832.002-.005a.438.438 0 0 1 .151-.224.377.377 0 0 1 .23-.079c.08 0 .161.027.23.08.07.052.123.13.151.223l.002.005L14.8 8.64l.11.352h8.18c.082.001.164.03.234.084a.457.457 0 0 1 .155.23.494.494 0 0 1-.002.292.455.455 0 0 1-.16.227l-6.348 4.718z"/></svg>
